<svg width="32" height="32" viewBox="0 0 32 32" fill="none" xmlns="http://www.w3.org/2000/svg">
<path d="M6.66675 8.00008C6.66675 6.58559 7.22865 5.22904 8.22884 4.22885C9.22904 3.22865 10.5856 2.66675 12.0001 2.66675H20.0001C21.4146 2.66675 22.7711 3.22865 23.7713 4.22885C24.7715 5.22904 25.3334 6.58559 25.3334 8.00008V26.6667C25.3334 27.374 25.0525 28.0523 24.5524 28.5524C24.0523 29.0525 23.374 29.3334 22.6667 29.3334H9.33341C8.62617 29.3334 7.94789 29.0525 7.4478 28.5524C6.9477 28.0523 6.66675 27.374 6.66675 26.6667V8.00008Z" stroke="#FAF0E6" stroke-width="3" stroke-linecap="round" stroke-linejoin="round"/>
<path d="M6.66675 13.3333H25.3334" stroke="#FAF0E6" stroke-width="3" stroke-linecap="round" stroke-linejoin="round"/>
<path d="M20 9.33325V17.3333" stroke="#FAF0E6" stroke-width="3" stroke-linecap="round" stroke-linejoin="round"/>
</svg>
