<svg width="55" height="55" viewBox="0 0 55 55" fill="none" xmlns="http://www.w3.org/2000/svg">
<path d="M11.4583 13.7499C11.4583 11.3188 12.424 8.98719 14.1431 7.26811C15.8622 5.54902 18.1938 4.58325 20.6249 4.58325H34.3749C36.8061 4.58325 39.1376 5.54902 40.8567 7.26811C42.5758 8.98719 43.5416 11.3188 43.5416 13.7499V45.8332C43.5416 47.0488 43.0587 48.2146 42.1992 49.0742C41.3396 49.9337 40.1738 50.4166 38.9583 50.4166H16.0416C14.826 50.4166 13.6602 49.9337 12.8007 49.0742C11.9411 48.2146 11.4583 47.0488 11.4583 45.8332V13.7499Z" stroke="#FAF0E6" stroke-width="4" stroke-linecap="round" stroke-linejoin="round"/>
<path d="M11.4583 22.9167H43.5416" stroke="#FAF0E6" stroke-width="4" stroke-linecap="round" stroke-linejoin="round"/>
<path d="M34.375 16.0417V29.7917" stroke="#FAF0E6" stroke-width="4" stroke-linecap="round" stroke-linejoin="round"/>
</svg>
