<svg width="55" height="55" viewBox="0 0 55 55" fill="none" xmlns="http://www.w3.org/2000/svg">
<path d="M22.1628 9.47836C22.2891 8.14997 22.9061 6.91637 23.8932 6.01858C24.8804 5.12078 26.1669 4.62329 27.5012 4.62329C28.8356 4.62329 30.1221 5.12078 31.1092 6.01858C32.0964 6.91637 32.7134 8.14997 32.8397 9.47836C32.9156 10.3365 33.1971 11.1637 33.6604 11.89C34.1237 12.6162 34.7552 13.2202 35.5014 13.6507C36.2475 14.0813 37.0865 14.3257 37.9471 14.3633C38.8078 14.4009 39.6648 14.2307 40.4457 13.8669C41.6583 13.3164 43.0323 13.2367 44.3003 13.6434C45.5683 14.0501 46.6397 14.9141 47.3059 16.0671C47.972 17.2202 48.1853 18.5799 47.9043 19.8815C47.6232 21.1832 46.8679 22.3337 45.7853 23.1092C45.0803 23.6038 44.5049 24.261 44.1076 25.0251C43.7103 25.7892 43.5029 26.6377 43.5029 27.4989C43.5029 28.3601 43.7103 29.2086 44.1076 29.9727C44.5049 30.7368 45.0803 31.3939 45.7853 31.8886C46.8679 32.664 47.6232 33.8146 47.9043 35.1162C48.1853 36.4179 47.972 37.7776 47.3059 38.9306C46.6397 40.0837 45.5683 40.9476 44.3003 41.3543C43.0323 41.761 41.6583 41.6814 40.4457 41.1309C39.6648 40.7671 38.8078 40.5968 37.9471 40.6344C37.0865 40.6721 36.2475 40.9165 35.5014 41.347C34.7552 41.7775 34.1237 42.3815 33.6604 43.1078C33.1971 43.8341 32.9156 44.6613 32.8397 45.5194C32.7134 46.8478 32.0964 48.0814 31.1092 48.9792C30.1221 49.877 28.8356 50.3745 27.5012 50.3745C26.1669 50.3745 24.8804 49.877 23.8932 48.9792C22.9061 48.0814 22.2891 46.8478 22.1628 45.5194C22.087 44.661 21.8055 43.8334 21.3421 43.1069C20.8786 42.3804 20.2469 41.7762 19.5004 41.3456C18.7539 40.9151 17.9147 40.6707 17.0537 40.6333C16.1928 40.596 15.3355 40.7666 14.5545 41.1309C13.3419 41.6814 11.9679 41.761 10.6999 41.3543C9.43184 40.9476 8.36048 40.0837 7.69432 38.9306C7.02816 37.7776 6.81485 36.4179 7.09591 35.1162C7.37697 33.8146 8.1323 32.664 9.21488 31.8886C9.91984 31.3939 10.4953 30.7368 10.8926 29.9727C11.2899 29.2086 11.4973 28.3601 11.4973 27.4989C11.4973 26.6377 11.2899 25.7892 10.8926 25.0251C10.4953 24.261 9.91984 23.6038 9.21488 23.1092C8.13382 22.3333 7.37983 21.1833 7.09944 19.8825C6.81906 18.5817 7.03232 17.2231 7.69776 16.0708C8.3632 14.9185 9.4333 14.0548 10.7001 13.6474C11.9669 13.2401 13.3398 13.3184 14.5522 13.8669C15.3331 14.2307 16.1901 14.4009 17.0508 14.3633C17.9114 14.3257 18.7503 14.0813 19.4965 13.6507C20.2427 13.2202 20.8742 12.6162 21.3375 11.89C21.8008 11.1637 22.0823 10.3365 22.1582 9.47836" stroke="#FAF0E6" stroke-width="4" stroke-linecap="round" stroke-linejoin="round"/>
<path d="M27.5 34.375C31.297 34.375 34.375 31.297 34.375 27.5C34.375 23.703 31.297 20.625 27.5 20.625C23.703 20.625 20.625 23.703 20.625 27.5C20.625 31.297 23.703 34.375 27.5 34.375Z" stroke="#FAF0E6" stroke-width="4" stroke-linecap="round" stroke-linejoin="round"/>
</svg>
